<svg fill="none" xmlns="http://www.w3.org/2000/svg" viewBox="0 0 32 32">
  <path fill="#fff" d="M0 0h32v32H0z"/>
  <circle cx="16" cy="16" r="15" fill="#FAB005"/>
  <rect x="6.5" y="6.5" width="19" height="19" rx="2.5" fill="#fff" stroke="#000"/>
  <path d="m10.9 8.72.06.28a5.04 5.04 0 0 1 .17 1.33 25.87 25.87 0 0 1 .03 1.63c0 .3.03.6.1.87.06.28.1.51.1.7.01.17.05.4.12.7a180.96 180.96 0 0 1 .45 2 93.38 93.38 0 0 1 .47 1.56c.08.3.13.55.14.73a5.36 5.36 0 0 0 .17 1.1c.04.22.07.42.08.6 0 .13.03.3.07.5a267.96 267.96 0 0 0 .56-1.1c.1-.19.18-.4.26-.63a285.07 285.07 0 0 0 .67-2.03c.19-.57.42-1.21.52-1.8a.93.93 0 0 1 .18-.42.96.96 0 0 1 1.25-.24c.47.29.52.88.65 1.36.32 1.02 1.18 2.46 1.57 3.14.38.68.57 1.06.8 1.58.04-.15.07-.29.08-.42a15.2 15.2 0 0 1 .57-2.26c.07-.24.12-.45.14-.64a6.89 6.89 0 0 1 .35-1.44c.08-.22.16-.51.24-.87.09-.36.17-.65.24-.86.09-.2.14-.42.16-.62.02-.21.07-.42.14-.63a179.27 179.27 0 0 0 .74-2.3c.08-.24.12-.47.13-.68 0-.22.05-.43.13-.63.09-.21.48-.7.84-.75.27-.03.8.28.84.52.06.48.09.83.08 1.05a2.8 2.8 0 0 1-.15.7l-.24.72c-.08.24-.13.47-.17.68-.05.22-.1.44-.18.67l-.18.66a21.99 21.99 0 0 1-.47 1.71c-.06.18-.1.39-.15.62-.04.22-.1.42-.16.58a4.96 4.96 0 0 0-.31 1.29c-.05.3-.1.55-.18.79a40.44 40.44 0 0 0-.39 1.33c-.05.2-.1.45-.14.74a9.9 9.9 0 0 1-.83 2.52.96.96 0 0 1-1.56.19c-.17-.24-.28-.5-.42-.75-.23-.4-.52-1.03-.74-1.36-.22-.34-.5-.92-.94-1.4-.4-.43-.7-.9-.95-1.4a17.43 17.43 0 0 1-1.23 3.09l-.45.8c-.13.18-.2.37-.21.54-.02.18-.09.39-.22.64-.12.25-.37.43-.74.54a.96.96 0 0 1-1-.23c-.28-.28-.42-.53-.43-.76 0-.24-.07-.5-.22-.8a5.42 5.42 0 0 1-.46-1.84c-.01-.19-.05-.47-.13-.84a6.49 6.49 0 0 1-.13-.87c0-.2-.06-.44-.14-.69l-.22-.77a20.83 20.83 0 0 0-.47-1.6c-.06-.22-.1-.43-.12-.63-.02-.21-.06-.43-.12-.66-.06-.24-.1-.48-.12-.72a12.5 12.5 0 0 0-.11-.98c-.06-.4-.09-.74-.09-1.02a50.93 50.93 0 0 0-.04-1.46 3.84 3.84 0 0 0-.1-.62 3.6 3.6 0 0 1-.08-.39.96.96 0 0 1 1.73-.66l.15.31Z" fill="#000"/>
</svg>
