<svg fill="none" xmlns="http://www.w3.org/2000/svg" viewBox="0 0 372 257">
  <path fill="#fff" d="M9 14h105v102H9z"/>
  <path d="M9.87 116.48c-1.43-37.27-.08-75.96-.27-103.1m-1.33 2.35c30.77-.81 62.18-.59 104.5-3.54L8.27 15.73Zm1.02-1.8c26.84.37 53.22.85 103.59.8l-103.59-.8Zm104.28.08c.54 39.53-1.5 80.81-1.22 102.44l1.22-102.44Zm-.82.9c.66 25.51-.35 50.59.55 101.65l-.55-101.65Zm1.83 103.9c-34.07-1.55-66.63-.42-104.91-2.58l104.91 2.58Zm-1.27-.82c-37.27.19-75.98-.86-103.3-.06l103.3.06Zm-101.46-.43c-.88-38.42-1.31-76.35-3.3-104.2l3.3 104.2Z" stroke="#000" stroke-width="4" stroke-linecap="round"/>
  <path d="m34.92 37.02.28 1.15c.2.77.35 1.59.46 2.47.11.88.2 1.92.26 3.13a108.3 108.3 0 0 1 .11 6.84c0 1.27.13 2.49.4 3.66s.42 2.14.46 2.89c.04.75.2 1.74.49 2.97l.7 3.05c.18.79.34 1.62.49 2.49.14.87.37 1.81.7 2.83l.97 3.07c.32 1.03.66 2.18 1.01 3.47s.55 2.32.6 3.09c.05.77.14 1.51.26 2.22l.44 2.41c.17.9.28 1.73.33 2.48.03.55.13 1.26.3 2.13a1190.17 1190.17 0 0 0 2.35-4.64c.38-.79.73-1.66 1.06-2.63a1519.82 1519.82 0 0 0 2.82-8.54c.79-2.38 1.78-5.08 2.19-7.52a3.9 3.9 0 0 1 .77-1.76 4 4 0 0 1 5.22-1.01c1.99 1.18 2.18 3.66 2.73 5.69 1.32 4.27 4.96 10.32 6.57 13.18a79.02 79.02 0 0 1 3.4 6.6c.13-.6.23-1.19.29-1.74.09-.83.26-1.82.53-2.98s.57-2.27.88-3.34c.31-1.07.63-2.11.96-3.14.33-1.02.53-1.92.61-2.7.09-.78.27-1.74.55-2.89.27-1.15.58-2.19.92-3.13.34-.95.68-2.17 1.02-3.68.34-1.51.68-2.71 1.01-3.59.34-.89.56-1.76.66-2.63.1-.87.28-1.75.57-2.64a770.13 770.13 0 0 0 2-6.28l1.09-3.33c.34-1.03.52-2 .55-2.89.03-.9.22-1.78.57-2.65.35-.87 2.02-2.95 3.51-3.13 1.14-.14 3.37 1.19 3.51 2.2.28 2.01.39 3.47.33 4.38-.06.91-.26 1.88-.6 2.91l-1.01 3.06a23.27 23.27 0 0 0-.74 2.86c-.17.9-.41 1.83-.72 2.8-.3.98-.56 1.9-.77 2.76-.2.87-.54 2.1-.99 3.68l-1 3.52c-.21.75-.42 1.61-.61 2.57-.19.95-.4 1.77-.66 2.44-.26.67-.5 1.44-.72 2.29-.22.86-.42 1.9-.61 3.12a20.84 20.84 0 0 1-.74 3.31 170.19 170.19 0 0 0-1.63 5.57c-.21.86-.4 1.9-.57 3.12-.17 1.21-.5 2.63-1.02 4.24A41.54 41.54 0 0 1 75 97.14a4.01 4.01 0 0 1-6.56.78c-.7-.96-1.17-2.07-1.75-3.1-.95-1.68-2.19-4.32-3.1-5.72-.91-1.4-2.1-3.86-3.96-5.89a24.1 24.1 0 0 1-3.97-5.88c-1 3.38-2.08 6.54-3.54 9.75a71.3 71.3 0 0 1-3.51 6.58c-.52.8-.81 1.56-.88 2.29a7.78 7.78 0 0 1-.9 2.68c-.53 1.05-1.58 1.8-3.13 2.27a4 4 0 0 1-4.14-.99c-1.2-1.13-1.81-2.19-1.82-3.17 0-.99-.33-2.1-.96-3.35a16.63 16.63 0 0 1-1.43-4.22 22.78 22.78 0 0 1-.5-3.51c-.02-.78-.19-1.95-.51-3.51-.31-1.56-.5-2.77-.54-3.64-.05-.87-.25-1.84-.6-2.91a58.27 58.27 0 0 1-.93-3.24c-.28-1.09-.6-2.25-.98-3.48l-.97-3.22c-.28-.91-.46-1.8-.53-2.66-.07-.87-.24-1.79-.5-2.77s-.42-1.99-.49-3.02c-.07-1.04-.22-2.4-.47-4.08a30.26 30.26 0 0 1-.37-4.29c0-1.18-.02-2.25-.04-3.21-.01-.97-.06-1.93-.14-2.9-.08-.97-.22-1.84-.41-2.61-.2-.76-.31-1.3-.35-1.63a4.03 4.03 0 0 1 3.01-4.38 3.97 3.97 0 0 1 4.26 1.6c.09.13.63 1.31.63 1.31Z" fill="#000"/>
  <path fill="#fff" d="M136 13h101v102H136z"/>
  <path d="M134.73 117.62c1.94-33.22.13-65.14 1.26-107.11m.58.69c32.31-.73 63.11 1.15 100.14 1.69L136.57 11.2Zm-2.05.59c30.25-.69 59.72-1.34 101.94-.95l-101.94.95Zm103.05.46c-.17 22.22 1.4 50.32.2 105.05l-.2-105.05Zm.16-.43c-.75 35.7-.13 71.48-.53 104.96l.53-104.96Zm-1.04 104.64a4612.4 4612.4 0 0 1-103.19 1.82l103.19-1.82Zm.42.46c-34.54.93-67.98.93-101.16.54l101.16-.54Zm-100.18 1.52c-1.91-38.16-1.8-74.82-.71-105.48l.71 105.48Z" stroke="#000" stroke-width="4" stroke-linecap="round"/>
  <path d="m184.76 42.36-.85-.57c-.57-.38-1.14-.34-1.73.12a32.2 32.2 0 0 0-4.22 4.1c-.53.67-1.1 1.57-1.71 2.71a142.21 142.21 0 0 0-2.39 4.62c-.33.65-.66 1.57-1 2.78-.34 1.2-.55 2.3-.62 3.26-.07.96-.24 1.92-.51 2.89-.27.97-.43 1.96-.5 2.97-.07 1-.24 2.33-.51 3.96a43.67 43.67 0 0 0-.64 7.39 8.14 8.14 0 0 0 .76 3.6 15.74 15.74 0 0 0 1.87 3.15c.71.94 1.32 1.7 1.82 2.27.5.58 1.05 1.1 1.63 1.56.59.45 1.45 1.06 2.59 1.81a5.7 5.7 0 0 0 3.42 1.04 62.59 62.59 0 0 1 5.42-.03c.93.02 1.84-.12 2.74-.42.9-.3 1.74-.6 2.55-.9.8-.3 1.51-.64 2.12-1.03.6-.4 1.36-.87 2.27-1.4.9-.54 1.87-1.12 2.89-1.75a7.2 7.2 0 0 0 2.36-2.21c.55-.86 1.1-1.81 1.64-2.85.53-1.05.94-2.26 1.21-3.63a26.88 26.88 0 0 0 .56-6.27l.02-2.94v-2.58c0-.8-.1-1.69-.32-2.68-.22-1-.82-2.07-1.81-3.22a22 22 0 0 1-2.37-3.27 11.61 11.61 0 0 0-1.79-2.42c-.6-.6-1.26-1.44-1.99-2.52a10.86 10.86 0 0 1-1.5-3.04c-.26-.94-.71-1.57-1.36-1.9a5.63 5.63 0 0 1-1.72-1.33c-.5-.57-1.1-.8-1.8-.68s-1.45.17-2.26.15c-3.6-.06-3.91-8.15.36-8.06.92.02 1.78.06 2.57.12.8.05 1.91.33 3.36.84 1.45.5 2.7 1.28 3.74 2.32 1.05 1.03 1.95 2 2.7 2.91.75.9 1.42 1.91 2 3.04.59 1.13 1.24 2.1 1.97 2.91.73.82 1.5 1.85 2.29 3.08s1.5 2.29 2.14 3.16c.64.87 1.29 1.9 1.95 3.08a13.82 13.82 0 0 1 1.46 4.05c.31 1.51.47 2.67.47 3.47l-.01 2.6-.01 3.04c-.01 1.1-.06 2.22-.14 3.36a11.04 11.04 0 0 1-.51 2.86 12.7 12.7 0 0 0-.56 2.6c-.1.96-.34 1.82-.69 2.59-.35.76-.74 1.66-1.16 2.69a8.27 8.27 0 0 1-1.65 2.61c-.68.72-1.27 1.44-1.78 2.17-.5.73-1.33 1.5-2.48 2.28l-2.66 1.83a26.3 26.3 0 0 1-5.74 2.84 201.08 201.08 0 0 0-5.78 1.96c-.9.35-1.74.53-2.51.55-.77.03-1.51.04-2.23.03-.73 0-1.6 0-2.62-.02a36.77 36.77 0 0 1-3.01-.16 11.5 11.5 0 0 1-3.14-.78 21.6 21.6 0 0 1-3.19-1.54 26 26 0 0 1-3.22-2.28 20.15 20.15 0 0 1-2.91-2.88c-.8-1-1.5-1.92-2.09-2.77-.6-.85-1.11-1.76-1.55-2.74l-1.12-2.45c-.3-.65-.59-1.45-.87-2.4a9.18 9.18 0 0 1-.41-2.5 67.22 67.22 0 0 1 .12-4.36c.04-.76.13-1.58.26-2.46l.43-2.86c.16-1.03.27-1.93.32-2.7.05-.77.22-1.78.51-3.03.3-1.26.47-2.28.52-3.05.06-.78.28-1.87.65-3.28l.94-3.57c.25-.97.54-1.8.89-2.48a284.73 284.73 0 0 1 2.06-4.04c.35-.67.72-1.36 1.11-2.05.4-.69.86-1.41 1.39-2.18.53-.76 1.22-1.55 2.06-2.36.84-.8 1.6-1.51 2.28-2.12.68-.6 1.61-1.26 2.79-1.95 1.17-.7 2.27-1.17 3.28-1.41a6.91 6.91 0 0 1 4.83.42c.7.3 1.34.64 1.92 1.03.98.65 1.91 1.34 2.36 2.46a4 4 0 0 1-1.02 4.44 4.06 4.06 0 0 1-4.5.62l-.44-.22Z" fill="#000"/>
  <path fill="#fff" d="M255 11h105v104H255z"/>
  <path d="M254.35 116.9c.47-26.6.2-50.44-.14-107.31m.11-1.24c38.58 3.71 77.01.38 107.67 1.55L254.32 8.35Zm.46 1.45c41.27-.46 81.2-.74 105.68-.11l-105.68.11Zm104.52.08c1.69 40.41 1.54 80.08 3.28 106.62L359.3 9.88Zm1.18-.37c-.02 27.67 1.03 55.08-.4 107.31l.4-107.31Zm.16 106.05c-33.53 2.09-70.07.44-105.89 1.06l105.89-1.06Zm1.04.58c-27.29-1.09-55.87-.39-105.81.4l105.81-.4Zm-108.27 1.2c3.67-38.98 4.16-80.35 2.07-105.36l-2.07 105.36Z" stroke="#000" stroke-width="4" stroke-linecap="round"/>
  <path d="m292.92 36.98-.29 1.14c-.2.77-.33 1.71-.41 2.83-.08 1.11 0 2.24.25 3.39s.4 2.1.43 2.85a195.26 195.26 0 0 1 .13 8.2l.01 4.1v4.03c0 1.35-.12 2.59-.34 3.73a30.37 30.37 0 0 0-.46 3.82 77.94 77.94 0 0 0-.18 6.37l-.02 4.06v6.18c0 1.05 0 2.03-.02 2.94-.1 6.96-8.06 6.67-8.06-1.9v-5.5l.01-3.78a771.35 771.35 0 0 1 .05-5.4c.01-.79.04-1.67.09-2.66.04-.99.2-2.21.46-3.68.27-1.47.4-2.87.39-4.2v-8.07l-.02-3.17-.02-2.33c-.01-.81-.05-1.75-.12-2.82-.07-1.06-.2-2.12-.42-3.19a11.09 11.09 0 0 1-.27-2.77c.04-.8.12-1.63.23-2.51a21.17 21.17 0 0 1 .92-4.07 3.75 3.75 0 0 1 1.09-1.58 4.02 4.02 0 0 1 2.66-1 3.86 3.86 0 0 1 1.86.47 3.68 3.68 0 0 1 1.43 1.28 3.82 3.82 0 0 1 .68 1.79c.04.32.04.64 0 .96l-.06.49Z" fill="#000"/>
  <path d="m287.17 35.73.56-1.19a7.37 7.37 0 0 1 1.99-2.38c.95-.8 1.9-1.32 2.84-1.55a51.1 51.1 0 0 0 2.99-.84c1.05-.33 2.16-.54 3.33-.63 1.18-.09 2.42-.14 3.72-.15h3.74c1.2.01 2.24.17 3.15.48l2.91.97c1.04.33 2.05.9 3.04 1.68.99.79 1.76 1.46 2.33 2.01a31.9 31.9 0 0 1 2.32 2.62c.97 1.19 1.77 2.3 2.4 3.35a19.96 19.96 0 0 1 1.54 3.24c.4 1.1.78 2.01 1.12 2.71.34.7.55 1.46.64 2.25.1.8.15 1.55.16 2.28a8.7 8.7 0 0 1-.39 2.51c-.27.95-.73 2.09-1.37 3.41a12.38 12.38 0 0 1-2.16 3.23c-.8.85-1.6 1.53-2.36 2.04a36.7 36.7 0 0 1-4.34 2.51c-.7.37-1.53.68-2.52.94a595.17 595.17 0 0 1-7.71 2.04 19.22 19.22 0 0 1-5.44.7c-.72.03-1.66.04-2.83.05-1.17.01-2.33-.08-3.49-.27a7.5 7.5 0 0 1-2.78-.93c-.7-.43-1.06-.52-1.08-.27-.02.25-.18.31-.47.18A3.86 3.86 0 0 1 287 64.7a4.2 4.2 0 0 1-.15-2.84c.1-.31.23-.6.4-.88a3.7 3.7 0 0 1 1.36-1.35 3.78 3.78 0 0 1 1.84-.56c.33-.02.65 0 .96.06.31.06.9.19 1.75.39a11.8 11.8 0 0 1 4.16 1.82c.6.4 1.39.73 2.35.98.96.25 1.78.58 2.47 1 .7.42 1.49.94 2.38 1.55.9.62 1.97 1.33 3.22 2.14 1.26.8 2.21 1.6 2.86 2.4a50.8 50.8 0 0 0 3.58 4.02c.63.65 1.28 1.31 1.95 1.97.66.67 1.3 1.24 1.93 1.72.63.49 1.53 1.11 2.71 1.87 1.17.76 2.1 1.31 2.79 1.66.68.35 1.62 1.06 2.82 2.14a78 78 0 0 1 3.34 3.2c4.65 4.74-3.88 9.26-6.78 4.13a5.1 5.1 0 0 0-1.77-1.77c-.8-.5-1.58-.95-2.34-1.34a49.4 49.4 0 0 1-5.29-3.11 15.39 15.39 0 0 1-2.14-1.79l-2.03-2.04a117 117 0 0 1-2.12-2.2 16.26 16.26 0 0 1-1.82-2.29 6.22 6.22 0 0 0-2.22-1.99c-1-.57-1.99-1.19-2.97-1.86a30.95 30.95 0 0 0-2.44-1.54c-.65-.37-1.48-.71-2.48-1.03-1-.33-1.85-.77-2.54-1.34a3.5 3.5 0 0 0-2.18-.87 4.6 4.6 0 0 1-1.59-.23A3.86 3.86 0 0 1 287 64.7a4.3 4.3 0 0 1-.15-2.84c.1-.31.23-.6.4-.88a3.7 3.7 0 0 1 1.36-1.35 3.78 3.78 0 0 1 1.84-.56c.33-.02.64 0 .95.06.32.06.81.21 1.47.45.65.25 1.41.37 2.27.36.86 0 1.92-.01 3.18-.04 1.26-.02 2.38-.07 3.35-.14.97-.07 2.11-.27 3.42-.61 1.3-.33 2.55-.67 3.74-1 1.19-.34 2.37-.83 3.55-1.46a120.9 120.9 0 0 1 2.75-1.45 5.16 5.16 0 0 0 1.9-2.06c.6-1.04.93-1.94.96-2.71a5.76 5.76 0 0 0-.58-2.57c-.43-.93-.97-1.99-1.62-3.16a20.34 20.34 0 0 0-1.89-2.87 36.5 36.5 0 0 0-2.35-2.6 7.17 7.17 0 0 0-2.61-1.88 8.41 8.41 0 0 0-2.76-.37l-3.43.04c-1.23 0-2.32.05-3.29.13-.97.08-1.98.1-3.03.06-1.05-.04-1.58.12-1.59.48 0 .36-.08.69-.22.98a4.04 4.04 0 0 1-3.94 2.28 3.79 3.79 0 0 1-2.57-1.21 4.07 4.07 0 0 1-.94-4.05Z" fill="#000"/>
  <path fill="#fff" d="M11 144h99v99H11z"/>
  <path d="M10.19 243c.25-22.15 1.45-44.09-.2-100.4m.89 1.67c29.4-2.02 54.93-1.2 100.05-2.02l-100.05 2.02Zm-1.23-.45c37.54-1.12 74.78.44 101.03.01l-101.03-.01Zm99.83-1.06c1.28 24.4-.41 48.61.82 98.51l-.82-98.51Zm1.43 1.09c-.47 25.54.98 54.37-.33 98.15l.33-98.15Zm1.96 99.32c-39.22-.98-75.42.62-101.56.03l101.56-.03Zm-2.73.29c-28.5-.87-58.26-.96-99.68-1.14l99.68 1.14Zm-99.98-.6c-1.7-19.36-.67-39.88.98-99.69l-.98 99.69Z" stroke="#000" stroke-width="4" stroke-linecap="round"/>
  <path d="M35.02 165.21c1.52 1.02 4.08-.17 5.77-.21 4.04-.06 8.98-1.12 12.84-2.27 5.26-1.54 11.15-.91 16.58-.73 3.48.09 6.87.96 10.48.96 2.36 0 5.29.76 6.31 3.13 3.22 7.52-9.65 5.13-13.38 4.78-2.46-.23-4.63-.83-7.15-.83-3.83 0-7.9-.42-11.64.52-3.85.97-8.59 2.32-12.55 2.46-1.68.06-3.32-.03-4.97.38-1.66.4-3.25.23-4.82-.43-1.62-.7-3.59-1.75-4.28-3.49a4 4 0 0 1 .39-3.7c1.6-2.43 4.35-1.96 6.42-.57Z" fill="#000"/>
  <path d="M61.12 167.59c.61 1.82.81 3.89.86 5.8.15 5.9.12 11.84.04 17.75-.03 4.79 2.01 9.45 2.01 14.37.02 2 .64 3.93.82 5.92.4 4.45 1.09 10.69-.3 14.94-1.77 5.43-9.35 4.34-8.02-.12 1.13-3.78.37-8.35.46-12.28.04-2.5-1.03-4.82-1.03-7.3 0-5.85-2-11.46-2-17.19 0-4.72.05-9.43-.02-14.15 0-.95-.04-1.91-.1-2.88a9.95 9.95 0 0 0-.38-2.32c-.58-1.73-.7-3.48.65-4.91.67-.7 1.6-1.15 2.57-1.21 2.38-.2 3.76 1.55 4.44 3.58Z" fill="#000"/>
  <path fill="#fff" d="M139 144h101v99H139z"/>
  <path d="M139.26 244.74c-.91-30.12-1.98-60.59.12-100.8m1.02.35c28.89-.51 61.15-1.58 100.96-2.51l-100.96 2.51Zm-1-1.14c23.75.04 46.09 1.25 101.12-.52l-101.12.52Zm98.81-1.05c.7 29.59 2.14 56.26 1.92 101.88l-1.92-101.88Zm2.58 1.46c-.26 30.42-1.55 62.24-1.35 101.38l1.35-101.38Zm1.03 102.21c-33.61-1.63-67.11 1.64-102.83-1.9l102.83 1.9Zm-.94-.42c-24.31.52-49.91-.84-102.02-.18l102.02.18Zm-102.2-2.17c1.75-19.89-1.88-45.51.43-100.91l-.43 100.91Z" stroke="#000" stroke-width="4" stroke-linecap="round"/>
  <path d="M178.96 161.79c-.29 1.43-.56 2.85-1.13 4.2a8.89 8.89 0 0 0-.62 2.98 160 160 0 0 0-.1 2.91c-.05 1.95-.05 3.9-.06 5.84-.01 2.6-.68 5.1-.83 7.68-.16 3-.17 6-.17 9.01-.02 3.58.01 7.15-.02 10.73 0 .75.13 1.75.4 2.99.37 1.74.5 3.46.55 5.23.06 3.25.76 7.38.76 7.38s1.98.52 4.15-.16c3.17-1.02 6.92-.62 10.21-.62 4.94 0 11.06-.46 15.95-1.21 5.56-.86 7.35 7 1.15 7.92-5.33.8-11.65 1.34-17.03 1.37-3.6 0-7.27-.17-10.82.54-2.18.43-4.32.5-6.53.32-3.09-.25-5-2.07-5.55-5.15-.75-4.13-.2-8.48-.49-12.66a19.7 19.7 0 0 0-.46-3.18 12.82 12.82 0 0 1-.35-2.73c-.03-3.95 0-7.9 0-11.84.02-2.49.01-4.98.13-7.46.2-3.95.83-7.8.9-11.78a133.05 133.05 0 0 1 .17-5.26c.06-.83.3-2 .7-3.51.63-2.4.6-6.36 3.11-7.79 1.72-1 4.02-.57 5.21 1.04.73.95.86 2.05.77 3.21Z" fill="#000"/>
  <path fill="#fff" d="M260 144h101v103H260z"/>
  <path d="M259.87 247.09c-1.19-27.56-1.42-54.72-1.31-104.35m.61-.14c35.94 1.85 67.89 1.33 100.85-1.47l-100.85 1.47Zm.02-.43c29.55.08 57.86.37 102.29.44l-102.29-.44Zm101.31-.01c-.15 24.48 2.23 52.23 1.54 102.88l-1.54-102.88Zm2.04.09c.47 36.41-.96 73.68-1.09 104.97l1.09-104.97Zm.43 105.12c-27.46 1.15-48.82.31-103.1-.1l103.1.1Zm-.46-.7c-41.37-.24-83.46.38-103.82.08l103.82-.08Zm-103.32.01c-1.89-37.56.14-77.37-.51-104.36l.51 104.36Z" stroke="#000" stroke-width="4" stroke-linecap="round"/>
  <path d="M291.63 165.89v1l-.01 2.38c-.01.92.14 1.82.44 2.72.3.9.49 1.86.57 2.9.08 1.03.12 2.12.14 3.28l.02 3.47V217.33c0 .78-.26.83-.78.14-.52-.7-.35-1.03.49-1.01a392.56 392.56 0 0 0 5.1.05c1.05.01 2.07.18 3.06.52.99.33 1.95.51 2.88.54l3.05.07c1.1 0 2.34-.14 3.7-.44 1.36-.3 2.54-.48 3.54-.53 1-.06 2.06-.26 3.18-.62a19.8 19.8 0 0 0 2.62-1.03 6.53 6.53 0 0 1 2.42-.62c7.51-.62 8.94 5.67 2.77 7.23a53.42 53.42 0 0 0-7.35 2.36c-.94.37-1.95.57-3.03.6-1.09.04-2.4.24-3.93.6a17.6 17.6 0 0 1-4.05.53 66.77 66.77 0 0 1-3.67-.15 23.78 23.78 0 0 1-3.76-.56 13.8 13.8 0 0 0-3.01-.43l-2.38-.02c-.81 0-1.7-.05-2.67-.12a9.92 9.92 0 0 1-2.65-.54 4.37 4.37 0 0 1-2.06-1.67 7.75 7.75 0 0 1-1.21-2.48 9.4 9.4 0 0 1-.33-2.42V185.46a748.57 748.57 0 0 1-.02-7.1 46.83 46.83 0 0 0-.13-3c-.08-.93-.27-1.93-.56-2.98-.3-1.06-.45-2.07-.45-3.03l-.01-2.46c0-.67.02-1.16.06-1.48a4.16 4.16 0 0 1 .68-1.8 3.9 3.9 0 0 1 2.34-1.61 3.95 3.95 0 0 1 4.26 1.62 4.22 4.22 0 0 1 .68 1.79l.06.48Z" fill="#000"/>
  <path d="M292.01 184h4.72l2.65.01c.85 0 1.85.13 3 .4s2.36.45 3.63.54a78.81 78.81 0 0 0 5.27.19c.76 0 1.6.02 2.52.04.93.03 2.42.63 4.49 1.82 1.74 1 1.71 4.56-1.21 5.64-.97.36-2 .55-3.1.56a140.07 140.07 0 0 1-7.78-.13c-.87-.05-2.02-.22-3.46-.53a17.06 17.06 0 0 0-3.4-.47l-2.61.01h-3.05c-1.11 0-1.83-.02-2.15-.06a4.23 4.23 0 0 1-1.79-.68 3.97 3.97 0 0 1-1.28-5.16 3.97 3.97 0 0 1 3.07-2.12l.48-.06ZM288.93 156.15s.45-.1 1.33-.33c.9-.22 1.84-.4 2.84-.52 1-.12 2.19-.22 3.57-.29a103.25 103.25 0 0 1 6.8-.13h14.33c1.37.02 2.56.18 3.56.5s2.04.71 3.08 1.16c6.2 2.75 3.7 5.1.43 6.2-2.1.69-3.5.9-4.2.61a8.1 8.1 0 0 0-3-.42l-4.28.01h-3.78l-3.23.01h-3.87l-3.76.04c-1.12.02-2.27.08-3.44.18-1.16.1-2.2.26-3.09.48-.88.23-1.5.36-1.82.4a3.86 3.86 0 0 1-1.9-.23c-.3-.1-.58-.26-.85-.45a3.7 3.7 0 0 1-1.28-1.43 4.03 4.03 0 0 1-.47-1.86c0-.32.04-.63.12-.95a4.04 4.04 0 0 1 1.6-2.35c.28-.18.56-.33.86-.45l.45-.18Z" fill="#000"/>
</svg>
