<svg xmlns="http://www.w3.org/2000/svg" viewBox="0 0 127.98 127.98">
  <g stroke-linecap="round">
    <path d="M117.98 63.99a54.65 54.65 0 0 1-4.11 20.66 53.16 53.16 0 0 1-7.05 12.2 52.23 52.23 0 0 1-4.66 5.31 52.59 52.59 0 0 1-11.18 8.58 53.16 53.16 0 0 1-13.02 5.4 54.65 54.65 0 0 1-13.97 1.84 53.96 53.96 0 0 1-42.83-21.13 54.09 54.09 0 0 1-9.32-18.89A54.65 54.65 0 0 1 10 63.99a53.96 53.96 0 0 1 21.12-42.83 56.1 56.1 0 0 1 5.87-3.93 55.6 55.6 0 0 1 13.03-5.39 53.96 53.96 0 0 1 67.5 45.1c.3 2.33.38 5.87.46 7.05.07 1.17.07-1.18 0 0" stroke-width="0" fill="#fab005"/>
    <path d="M117.98 63.99a54.65 54.65 0 0 1-4.11 20.66 53.16 53.16 0 0 1-7.05 12.2 52.23 52.23 0 0 1-4.66 5.31 52.59 52.59 0 0 1-11.18 8.58 53.16 53.16 0 0 1-13.02 5.4 54.65 54.65 0 0 1-13.97 1.84 53.96 53.96 0 0 1-42.83-21.13 54.09 54.09 0 0 1-9.32-18.89A54.65 54.65 0 0 1 10 63.99a53.96 53.96 0 0 1 21.12-42.83 56.1 56.1 0 0 1 5.87-3.93 55.6 55.6 0 0 1 13.03-5.39 53.96 53.96 0 0 1 67.5 45.1c.3 2.33.38 5.87.46 7.05.07 1.17.07-1.18 0 0" stroke="#0000" fill="none"/>
  </g>
  <g stroke-linecap="round">
    <path d="m45.97 29.88 39.84-.7 7.35-.44 1.44 6.78 3.08 10.64 2.67 41.6-5.94 7.38-2.86 4.46-10.16 2.48-39.2-1.52-4.5-.47-4.5-6.84-4.64-8.5 1.58-43.66 4.7-7.64 4.13-3.22 6.9-1.48" stroke-width="0" fill="#fff"/>
    <path d="M46.76 28.21a216 216 0 0 0 34.64 0m-34.64 0c11.82 1.01 24.61.32 34.64 0m0 0c10.42-.43 15.53 4.68 17.31 17.32m-17.3-17.32c12.8-1.38 17.94 6.32 17.3 17.32m0 0c1.08 7.7-1.23 17.22 0 38.11m0-38.1c-.39 7.51.94 16.91 0 38.1m0 0c1.54 10.16-7.73 17.11-17.3 17.31m17.3-17.3c.86 13.6-5.9 16.72-17.3 17.3m0 0c-9.14 1.02-14.47-.99-34.65 0m34.64 0c-12.16.81-22.9.76-34.64 0m0 0c-10.13 0-15.68-7.17-17.32-17.3m17.32 17.3c-13.73-1.7-16.13-4.04-17.32-17.3m0 0c-.2-13.23.74-29.4 0-38.12m0 38.11c.41-8.49.47-16.58 0-38.1m0 0c-.06-10.4 5-17.46 17.32-17.33M29.44 45.53c-1.8-13.45 4.15-19.08 17.32-17.32" stroke="#000" stroke-width="2" fill="none"/>
  </g>
  <path d="m39.38 43.08.86 1.09q.86 1.09 1.92 2.82 1.06 1.73 1.96 3.05.9 1.32 2.18 3.99 1.28 2.68 3.17 7.47 1.9 4.8 3.68 9.55 1.8 4.75 2.65 7.1.86 2.36 1.36 3.37.5 1.02.86 1.52t.45.72q.1.22.12.45.04.24.01.48-.02.24-.1.46-.08.22-.2.42-.14.2-.32.37-.17.16-.38.27-.2.12-.44.18-.23.06-.47.07-.24 0-.47-.05-.23-.05-.45-.16-.2-.11-.39-.26-.19-.15-.33-.35-.13-.2-.05-1.3t.26-2.3q.18-1.2.42-2.42t.53-2.4q.3-1.18 1.08-2.91.78-1.74 1.2-2.78.41-1.05.94-2.64.53-1.6.8-2.68l.27-1.2q.03-.12.18-.43.15-.3.37-.56.22-.26.5-.46.27-.21.58-.33.32-.13.65-.18.34-.05.68-.02.34.03.66.15.32.1.61.29.28.19.52.44.23.25.4.55.16.29.25.62.1.33.1.67.01.34-.07.68-.07.33-.22-.9-.14-1.21.28-.1.43 1.1 1.06 3.09.63 1.98 1.28 4.27.66 2.28 1.2 4.4l1.11 4.24q.56 2.1 1 3.18.45 1.07.85 1.78.4.7.47.99.07.27.08.55 0 .28-.06.55-.06.28-.19.53-.12.25-.3.46-.19.22-.42.38-.22.16-.49.27-.26.1-.53.14-.28.04-.56 0-.28-.02-.55-.11-.26-.1-.5-.25-.23-.16-.42-.37-.19-.2-.32-.45-.14-.25.12-1.53t1-2.87q.74-1.6 1.86-3.7 1.13-2.07 2.28-4.45 1.16-2.37 2.98-6.15 1.82-3.8 3.47-6.61l3-5.14q1.35-2.32 2.04-3.68.68-1.36 1.71-3.13 1.02-1.77 1.21-2 .18-.21.42-.36t.52-.22q.28-.06.56-.04.3.03.55.15.26.1.47.3.21.2.35.45.14.25.2.53.04.28 0 .57-.04.28-.17.53-.13.26-.34.46-.2.2-.46.32-.26.13-.54.16-.29.04-.57-.02-.28-.06-.52-.2-.25-.15-.44-.36-.19-.22-.3-.48-.1-.26-.13-.55-.02-.28.06-.56.07-.28.22-.52.16-.24.4-.41.21-.18.48-.27.27-.1.56-.1.28-.01.55.08.28.09.51.26.23.17.4.4.16.23.24.5.08.28.07.57-.02.28-.12.55l-.1.27-1.05 1.74q-1.05 1.74-1.86 3-.82 1.28-2.09 3.65l-2.73 5.1q-1.47 2.76-3.1 6.59-1.65 3.83-2.6 6.33l-1.85 4.83q-.89 2.32-1.98 3.18-1.09.85-1.02 1.13.07.27.08.55 0 .28-.06.55-.06.28-.19.53-.12.25-.3.46-.19.22-.42.38-.22.16-.49.27-.26.1-.53.14-.28.04-.56 0-.28-.02-.55-.11-.26-.1-.5-.25-.23-.16-.42-.36-.19-.21-.32-.46-.14-.24-.37-1.14l-.56-2.04q-.3-1.15-1.09-3.17-.78-2.02-1.58-3.95-.8-1.93-1.85-4.13-1.04-2.2-1.49-3.43-.44-1.24-.64-2.5l-.4-2.54q-.19-1.3-.04-1.6.15-.3.37-.56.22-.26.5-.46.27-.21.58-.33.32-.13.65-.18.34-.05.68-.02.34.03.66.15.32.1.61.29.28.19.51.44.24.25.4.55.17.29.26.62.1.33.1.67.01.34-.07.68-.07.33-.12.44l-.53 1.26q-.49 1.16-1.23 2.74-.73 1.59-1.2 2.55-.5.96-1.08 2.47-.59 1.5-.93 2.52-.34 1.02-1.4 3.07-1.06 2.06-.97 2.28.1.22.12.45.04.24.01.48-.02.24-.1.46-.08.22-.2.42-.14.2-.32.37-.17.16-.38.27-.2.12-.44.18-.23.06-.47.07-.24 0-.47-.05-.23-.05-.45-.16-.2-.11-.39-.26-.19-.15-.32-.35-.14-.2-.4-1.05-.26-.85-.54-1.93-.27-1.08-1.2-3.4l-2.8-7q-1.87-4.7-3.82-9.3-1.94-4.6-3.28-7-1.34-2.41-2.19-3.76-.86-1.36-1.96-2.94-1.1-1.58-1.87-2.74-.78-1.16-.89-1.36-.12-.21-.18-.44-.06-.22-.07-.46 0-.23.05-.46t.15-.44q.11-.21.26-.4.15-.17.34-.31.2-.14.41-.22.22-.1.46-.13.23-.03.45-.01.24.03.46.1.22.08.42.2.2.14.36.3l.16.19Z"/>
</svg>
